<?xml version="1.0" encoding="UTF-8" standalone="no"?>
<svg
   xmlns:dc="http://purl.org/dc/elements/1.1/"
   xmlns:cc="http://creativecommons.org/ns#"
   xmlns:rdf="http://www.w3.org/1999/02/22-rdf-syntax-ns#"
   xmlns:svg="http://www.w3.org/2000/svg"
   xmlns="http://www.w3.org/2000/svg"
   xmlns:xlink="http://www.w3.org/1999/xlink"
   xmlns:sodipodi="http://sodipodi.sourceforge.net/DTD/sodipodi-0.dtd"
   xmlns:inkscape="http://www.inkscape.org/namespaces/inkscape"
   width="22"
   height="22"
   viewBox="0 0 22 22"
   id="svg3185"
   version="1.1"
   inkscape:version="0.48.5 r10040"
   sodipodi:docname="indicator-messages-new.svg">
  <metadata
     id="metadata3209">
    <rdf:RDF>
      <cc:Work
         rdf:about="">
        <dc:format>image/svg+xml</dc:format>
        <dc:type
           rdf:resource="http://purl.org/dc/dcmitype/StillImage" />
      </cc:Work>
    </rdf:RDF>
  </metadata>
  <sodipodi:namedview
     pagecolor="#ffffff"
     bordercolor="#666666"
     borderopacity="1"
     objecttolerance="10"
     gridtolerance="10"
     guidetolerance="10"
     inkscape:pageopacity="0"
     inkscape:pageshadow="2"
     inkscape:window-width="816"
     inkscape:window-height="643"
     id="namedview3207"
     showgrid="false"
     inkscape:zoom="13.906433"
     inkscape:cx="6.6722468"
     inkscape:cy="9.2960139"
     inkscape:window-x="966"
     inkscape:window-y="63"
     inkscape:window-maximized="0"
     inkscape:current-layer="svg3185" />
  <defs
     id="defs3187">
    <clipPath
       id="clip1">
      <rect
         width="24"
         height="24"
         id="rect3190"
         x="0"
         y="0" />
    </clipPath>
    <filter
       width="1"
       x="0"
       y="0"
       height="1"
       filterUnits="objectBoundingBox"
       id="alpha"
       color-interpolation-filters="sRGB">
      <feColorMatrix
         values="0 0 0 0 1 0 0 0 0 1 0 0 0 0 1 0 0 0 1 0"
         in="SourceGraphic"
         type="matrix"
         id="feColorMatrix3193" />
    </filter>
    <g
       id="surface6"
       clip-path="url(#clip1)">
      <path
         style="fill:#000000"
         d="m 3.714844,6.339844 c 0.15625,0.046875 0.300781,0.125 0.421875,0.230468 L 12,12.171875 19.863281,6.570312 c 0.144531,-0.113281 0.316407,-0.191406 0.496094,-0.230468 z m 18.101562,1.382812 c -0.03906,0.335938 -0.222656,0.640625 -0.496094,0.84375 l -8.589843,6.136719 c -0.433594,0.316406 -1.027344,0.316406 -1.460938,0 L 2.679688,8.566406 C 2.445312,8.410156 2.269531,8.179688 2.183594,7.914062 l 0,10.699219 c 0,0.644531 0.582031,1.226563 1.226562,1.226563 l 17.179688,0 c 0.644531,0 1.226562,-0.582032 1.226562,-1.226563 z"
         id="path3196"
         inkscape:connector-curvature="0" />
    </g>
    <mask
       id="mask0">
      <g
         style="filter:url(#alpha)"
         id="g3199">
        <rect
           width="24"
           x="0"
           y="0"
           height="24"
           style="fill:#000000;fill-opacity:0.30199998"
           id="rect3201" />
      </g>
    </mask>
  </defs>
  <use
     xlink:href="#surface6"
     id="use3203"
     mask="url(#mask0)"
     x="0"
     y="0"
     width="24"
     height="24"
     transform="matrix(0.81496222,0,0,0.75394911,1.2204534,2.0417672)" />
  <path
     style="fill:#54cdee"
     d="M 4.2479109,6 C 4.3752487,6.035341 4.493036,6.094244 4.5917231,6.173762 L 11,10.39411 17.408277,6.173762 C 17.526064,6.0883538 17.666136,6.0294508 17.812575,6 z M 19,7.039625 C 18.96817,7.29585 18.818544,7.5255694 18.595703,7.6757696 l -7.000399,4.6267744 c -0.353362,0.241499 -0.837246,0.241499 -1.190608,0 L 3.4042979,7.6757696 C 3.2132903,7.56091 3.0700354,7.3871488 3,7.1839354 l 0,8.0696116 c 0,0.482999 0.4743333,0.924766 0.9996017,0.924766 l 14.0007963,0 C 18.525667,16.178313 19,15.736546 19,15.253547 z"
     id="path3205"
     inkscape:connector-curvature="0" />
</svg>
