<?xml version="1.0" encoding="UTF-8" standalone="no"?>
<svg
   xmlns:osb="http://www.openswatchbook.org/uri/2009/osb"
   xmlns:dc="http://purl.org/dc/elements/1.1/"
   xmlns:cc="http://creativecommons.org/ns#"
   xmlns:rdf="http://www.w3.org/1999/02/22-rdf-syntax-ns#"
   xmlns:svg="http://www.w3.org/2000/svg"
   xmlns="http://www.w3.org/2000/svg"
   xmlns:sodipodi="http://sodipodi.sourceforge.net/DTD/sodipodi-0.dtd"
   xmlns:inkscape="http://www.inkscape.org/namespaces/inkscape"
   width="22"
   height="22"
   viewBox="0 0 22 22"
   id="svg2"
   version="1.1"
   inkscape:version="0.48.5 r10040"
   sodipodi:docname="indicator-messages.svg">
  <metadata
     id="metadata26">
    <rdf:RDF>
      <cc:Work
         rdf:about="">
        <dc:format>image/svg+xml</dc:format>
        <dc:type
           rdf:resource="http://purl.org/dc/dcmitype/StillImage" />
      </cc:Work>
    </rdf:RDF>
  </metadata>
  <sodipodi:namedview
     pagecolor="#ffffff"
     bordercolor="#666666"
     borderopacity="1"
     objecttolerance="10"
     gridtolerance="10"
     guidetolerance="10"
     inkscape:pageopacity="0"
     inkscape:pageshadow="2"
     inkscape:window-width="949"
     inkscape:window-height="741"
     id="namedview24"
     showgrid="false"
     inkscape:zoom="9.8333333"
     inkscape:cx="10.525424"
     inkscape:cy="11.59322"
     inkscape:window-x="79"
     inkscape:window-y="243"
     inkscape:window-maximized="0"
     inkscape:current-layer="svg2" />
  <defs
     id="defs4">
    <linearGradient
       id="linearGradient6917"
       osb:paint="solid">
      <stop
         style="stop-color:#e43a3a;stop-opacity:1;"
         offset="0"
         id="stop6919" />
    </linearGradient>
    <clipPath
       id="clip1">
      <rect
         width="24"
         height="24"
         id="rect7"
         x="0"
         y="0" />
    </clipPath>
    <filter
       width="1"
       x="0"
       y="0"
       height="1"
       filterUnits="objectBoundingBox"
       id="alpha"
       color-interpolation-filters="sRGB">
      <feColorMatrix
         values="0 0 0 0 1 0 0 0 0 1 0 0 0 0 1 0 0 0 1 0"
         in="SourceGraphic"
         type="matrix"
         id="feColorMatrix10" />
    </filter>
    <g
       id="surface6"
       clip-path="url(#clip1)">
      <path
         style="fill:#000000"
         d="m 3.714844,6.339844 c 0.15625,0.046875 0.300781,0.125 0.421875,0.230468 L 12,12.171875 19.863281,6.570312 c 0.144531,-0.113281 0.316407,-0.191406 0.496094,-0.230468 z m 18.101562,1.382812 c -0.03906,0.335938 -0.222656,0.640625 -0.496094,0.84375 l -8.589843,6.136719 c -0.433594,0.316406 -1.027344,0.316406 -1.460938,0 L 2.679688,8.566406 C 2.445312,8.410156 2.269531,8.179688 2.183594,7.914062 l 0,10.699219 c 0,0.644531 0.582031,1.226563 1.226562,1.226563 l 17.179688,0 c 0.644531,0 1.226562,-0.582032 1.226562,-1.226563 z"
         id="path13"
         inkscape:connector-curvature="0" />
    </g>
    <mask
       id="mask0">
      <g
         style="filter:url(#alpha)"
         id="g16">
        <rect
           width="24"
           x="0"
           y="0"
           height="24"
           style="fill:#000000;fill-opacity:0.30199998"
           id="rect18" />
      </g>
    </mask>
  </defs>
  <path
     style="fill:#cccccc;fill-opacity:1"
     d="m 4.1292669,6.7413519 c 0.1273379,0.035341 0.2451251,0.094244 0.3438122,0.173762 l 6.4082769,4.2203481 6.408277,-4.2203481 c 0.117787,-0.085408 0.257859,-0.1443112 0.404298,-0.173762 z M 18.881356,7.7809774 c -0.03183,0.256225 -0.181456,0.485944 -0.404297,0.636144 L 11.47666,13.043895 c -0.353362,0.2415 -0.837246,0.2415 -1.190608,0 L 3.2856538,8.4171214 C 3.0946462,8.3022614 2.9513913,8.1285004 2.8813559,7.9252874 l 0,8.0696116 c 0,0.482998 0.4743334,0.924765 0.9996018,0.924765 l 14.0007963,0 c 0.525268,0 0.999602,-0.441767 0.999602,-0.924765 z"
     id="path22-0"
     inkscape:connector-curvature="0" />
  <path
     style="fill:#f9f9f9;fill-opacity:1"
     d="m 4.1462161,6.1016948 c 0.127338,0.035341 0.245125,0.094244 0.343812,0.173762 l 6.4082769,4.2203482 6.408277,-4.2203482 c 0.117787,-0.085408 0.257859,-0.1443112 0.404298,-0.173762 z M 18.898305,7.1413199 c -0.03183,0.256225 -0.181456,0.4859443 -0.404297,0.6361446 l -7.000399,4.6267735 c -0.353362,0.2415 -0.837246,0.2415 -1.190608,0 L 3.3026031,7.7774645 C 3.1115951,7.6626048 2.9683401,7.4888436 2.8983051,7.2856303 l 0,8.0696117 c 0,0.482998 0.474333,0.924766 0.999602,0.924766 l 14.0007959,0 c 0.525268,0 0.999602,-0.441768 0.999602,-0.924766 z"
     id="path22"
     inkscape:connector-curvature="0" />
</svg>
