<?xml version="1.0" encoding="UTF-8" standalone="no"?>
<svg
   xmlns:osb="http://www.openswatchbook.org/uri/2009/osb"
   xmlns:dc="http://purl.org/dc/elements/1.1/"
   xmlns:cc="http://creativecommons.org/ns#"
   xmlns:rdf="http://www.w3.org/1999/02/22-rdf-syntax-ns#"
   xmlns:svg="http://www.w3.org/2000/svg"
   xmlns="http://www.w3.org/2000/svg"
   xmlns:sodipodi="http://sodipodi.sourceforge.net/DTD/sodipodi-0.dtd"
   xmlns:inkscape="http://www.inkscape.org/namespaces/inkscape"
   height="16"
   version="1.1"
   width="16"
   id="svg2"
   inkscape:version="0.48.5 r10040"
   sodipodi:docname="audio-volume-low.svg"
   style="enable-background:new">
  <sodipodi:namedview
     pagecolor="#ffffff"
     bordercolor="#666666"
     borderopacity="1"
     objecttolerance="10"
     gridtolerance="10"
     guidetolerance="10"
     inkscape:pageopacity="0"
     inkscape:pageshadow="2"
     inkscape:window-width="640"
     inkscape:window-height="480"
     id="namedview17"
     showgrid="false"
     inkscape:zoom="10.727273"
     inkscape:cx="12.076695"
     inkscape:cy="11.317221"
     inkscape:window-x="406"
     inkscape:window-y="469"
     inkscape:window-maximized="0"
     inkscape:current-layer="layer9" />
  <metadata
     id="metadata90">
    <rdf:RDF>
      <cc:Work
         rdf:about="">
        <dc:format>image/svg+xml</dc:format>
        <dc:type
           rdf:resource="http://purl.org/dc/dcmitype/StillImage" />
      </cc:Work>
    </rdf:RDF>
  </metadata>
  <defs
     id="defs7386">
    <linearGradient
       id="linearGradient5606"
       osb:paint="solid">
      <stop
         id="stop5608" />
    </linearGradient>
  </defs>
  <g
     inkscape:groupmode="layer"
     id="layer9"
     inkscape:label="status"
     transform="translate(-261.00021,363)">
    <path
       inkscape:connector-curvature="0"
       d="m 270.71896,-360.87519 c -0.37847,0.0899 -0.48277,0.69481 -0.15625,0.90625 2.17533,1.79085 2.49123,5.01805 0.71875,7.21875 -0.22704,0.28188 -0.41025,0.48761 -0.6875,0.71875 -0.26511,0.13669 -0.34594,0.53543 -0.15499,0.76457 0.19095,0.22915 0.59773,0.22155 0.77999,-0.0146 0.32037,-0.2671 0.58167,-0.51837 0.84375,-0.84375 2.1111,-2.62112 1.71895,-6.48951 -0.875,-8.625 -0.10831,-0.0984 -0.26135,-0.14549 -0.40625,-0.125 -0.0208,-10e-4 -0.0417,-10e-4 -0.0625,0 z"
       id="path3042"
       sodipodi:nodetypes="ccccscccccc"
       style="opacity:0.35;color:#ffffff;fill:#ffffff" />
    <path
       id="path3044"
       d="m 272.18771,-363.00019 c -0.37012,0.10598 -0.45261,0.70404 -0.125,0.90625 3.33534,2.62114 3.93769,7.46995 1.34375,10.84375 -0.41664,0.54192 -0.80787,0.92283 -1.34375,1.34375 -0.42547,0.31087 0.16833,1.12344 0.59375,0.8125 0.59174,-0.4648 1.07155,-0.96458 1.53125,-1.5625 2.92282,-3.80156 2.23063,-9.29366 -1.53125,-12.25 -0.11354,-0.0875 -0.26585,-0.12265 -0.40625,-0.0937 -0.0208,-0.001 -0.0417,-0.001 -0.0625,0 z"
       inkscape:connector-curvature="0"
       sodipodi:nodetypes="cccccscccc"
       style="opacity:0.35;color:#ffffff;fill:#ffffff" />
    <path
       sodipodi:nodetypes="ccccccccccc"
       id="path3054"
       d="m 267.46896,-360.99991 -3,3 -1.46875,0 -1,0 0,6 2.46875,0 3.0625,3.03125 0.46875,-0.0312 0,-12 -0.53125,0 z"
       inkscape:connector-curvature="0"
       style="opacity:0.2;color:#ffffff" />
    <path
       sodipodi:nodetypes="ccccsccccsc"
       inkscape:connector-curvature="0"
       d="m 269.31271,-357.65616 c -0.3577,0.092 -0.47609,0.6445 -0.1875,0.875 0.98197,0.99012 0.97907,2.56971 0,3.5625 -0.008,0.008 0.004,0.0276 0,0.0312 -0.25698,0.15718 -0.30568,0.56716 -0.0927,0.78017 0.21301,0.21301 0.62299,0.16431 0.78017,-0.0927 0.008,-0.008 0.0272,0.004 0.0312,0 1.35895,-1.37799 1.36295,-3.62572 0,-5 -0.11517,-0.1281 -0.29975,-0.18963 -0.46875,-0.15625 -0.0208,-10e-4 -0.0417,-10e-4 -0.0625,0 z"
       id="path3056"
       style="opacity:0.2;color:#ffffff" />
    <path
       inkscape:connector-curvature="0"
       d="m 267.46896,-362.00019 -3,3 -1.46875,0 -1,0 0,6 2.46875,0 3.0625,3.03125 0.46875,-0.0312 0,-12 -0.53125,0 z"
       id="path5491"
       sodipodi:nodetypes="ccccccccccc"
       style="color:#ffffff;fill:#ffffff" />
    <path
       id="path3040"
       d="m 269.31271,-358.65644 c -0.3577,0.092 -0.47609,0.6445 -0.1875,0.875 0.98197,0.99012 0.97907,2.56971 0,3.5625 -0.008,0.008 0.004,0.0276 0,0.0312 -0.25698,0.15718 -0.30568,0.56716 -0.0927,0.78017 0.21301,0.21301 0.62299,0.16431 0.78017,-0.0927 0.008,-0.008 0.0272,0.004 0.0312,0 1.35895,-1.37799 1.36295,-3.62572 0,-5 -0.11517,-0.1281 -0.29975,-0.18963 -0.46875,-0.15625 -0.0208,-10e-4 -0.0417,-10e-4 -0.0625,0 z"
       inkscape:connector-curvature="0"
       sodipodi:nodetypes="ccccsccccsc"
       style="color:#ffffff;fill:#ffffff" />
  </g>
</svg>
