<?xml version="1.0" encoding="UTF-8" standalone="no"?>
<svg
   xmlns:dc="http://purl.org/dc/elements/1.1/"
   xmlns:cc="http://creativecommons.org/ns#"
   xmlns:rdf="http://www.w3.org/1999/02/22-rdf-syntax-ns#"
   xmlns:svg="http://www.w3.org/2000/svg"
   xmlns="http://www.w3.org/2000/svg"
   xmlns:sodipodi="http://sodipodi.sourceforge.net/DTD/sodipodi-0.dtd"
   xmlns:inkscape="http://www.inkscape.org/namespaces/inkscape"
   width="16"
   height="16"
   version="1.1"
   id="svg2"
   inkscape:version="0.48.5 r10040"
   sodipodi:docname="avatar-default.svg">
  <defs
     id="defs12" />
  <sodipodi:namedview
     pagecolor="#ffffff"
     bordercolor="#666666"
     borderopacity="1"
     objecttolerance="10"
     gridtolerance="10"
     guidetolerance="10"
     inkscape:pageopacity="0"
     inkscape:pageshadow="2"
     inkscape:window-width="864"
     inkscape:window-height="592"
     id="namedview10"
     showgrid="false"
     inkscape:zoom="10.727273"
     inkscape:cx="11"
     inkscape:cy="11"
     inkscape:window-x="370"
     inkscape:window-y="298"
     inkscape:window-maximized="0"
     inkscape:current-layer="layer1" />
  <metadata
     id="metadata3401">
    <rdf:RDF>
      <cc:Work
         rdf:about="">
        <dc:format>image/svg+xml</dc:format>
        <dc:type
           rdf:resource="http://purl.org/dc/dcmitype/StillImage" />
      </cc:Work>
    </rdf:RDF>
  </metadata>
  <g
     id="layer1"
     inkscape:label="Layer 1"
     inkscape:groupmode="layer">
    <path
       id="path8976"
       d="m 8,1.9333333 c -2.20914,0 -4,1.6714694 -4,3.7333334 C 4,7.7285307 5.79086,9.4 8,9.4 10.20914,9.4 12,7.7285307 12,5.6666667 12,3.6048027 10.20914,1.9333333 8,1.9333333 z"
       inkscape:connector-curvature="0"
       sodipodi:nodetypes="sssss"
       style="opacity:0.3;color:#bebebe" />
    <path
       sodipodi:nodetypes="sssss"
       inkscape:connector-curvature="0"
       d="M 8,1 C 5.79086,1 4,2.6714693 4,4.7333333 c 0,2.061864 1.79086,3.7333334 4,3.7333334 2.20914,0 4,-1.6714694 4,-3.7333334 C 12,2.6714693 10.20914,1 8,1 z"
       id="path4266"
       style="color:#bebebe;fill:#ffffff" />
    <path
       d="M 4.78125,9.1958333 C 2.53259,10.282747 2,12.473373 2,15 l 12,0 C 14,12.473373 13.46741,10.282747 11.21875,9.1958333 10.34416,9.8941253 9.23393,10.333333 8,10.333333 c -1.23393,0 -2.34416,-0.4392077 -3.21875,-1.1374997 z"
       id="path8978"
       inkscape:connector-curvature="0"
       sodipodi:nodetypes="ccccsc"
       style="opacity:0.3;fill-rule:evenodd" />
    <path
       sodipodi:nodetypes="ccccsc"
       inkscape:connector-curvature="0"
       id="path4268"
       d="M 4.78125,8.2625 C 2.53259,9.3494133 2,11.54004 2,14.066667 l 12,0 C 14,11.54004 13.46741,9.3494133 11.21875,8.2625 10.34416,8.960792 9.23393,9.4 8,9.4 6.76607,9.4 5.65584,8.960792 4.78125,8.2625 z"
       style="fill:#ffffff;fill-rule:evenodd" />
  </g>
</svg>
