<?xml version="1.0" encoding="UTF-8" standalone="no"?>
<svg
   xmlns:dc="http://purl.org/dc/elements/1.1/"
   xmlns:cc="http://creativecommons.org/ns#"
   xmlns:rdf="http://www.w3.org/1999/02/22-rdf-syntax-ns#"
   xmlns:svg="http://www.w3.org/2000/svg"
   xmlns="http://www.w3.org/2000/svg"
   xmlns:sodipodi="http://sodipodi.sourceforge.net/DTD/sodipodi-0.dtd"
   xmlns:inkscape="http://www.inkscape.org/namespaces/inkscape"
   height="22"
   width="22"
   version="1.1"
   id="svg2"
   inkscape:version="0.48.5 r10040"
   sodipodi:docname="tomboy-panel.svg">
  <defs
     id="defs9" />
  <sodipodi:namedview
     pagecolor="#ffffff"
     bordercolor="#666666"
     borderopacity="1"
     objecttolerance="10"
     gridtolerance="10"
     guidetolerance="10"
     inkscape:pageopacity="0"
     inkscape:pageshadow="2"
     inkscape:window-width="977"
     inkscape:window-height="629"
     id="namedview7"
     showgrid="false"
     inkscape:zoom="10.727273"
     inkscape:cx="11.186441"
     inkscape:cy="10.81356"
     inkscape:window-x="710"
     inkscape:window-y="388"
     inkscape:window-maximized="0"
     inkscape:current-layer="svg2" />
  <metadata
     id="metadata7">
    <rdf:RDF>
      <cc:Work
         rdf:about="">
        <dc:format>image/svg+xml</dc:format>
        <dc:type
           rdf:resource="http://purl.org/dc/dcmitype/StillImage" />
      </cc:Work>
    </rdf:RDF>
  </metadata>
  <path
     inkscape:connector-curvature="0"
     d="m 17.937773,4.9493827 c -0.06786,0.033627 -0.127401,0.084823 -0.171719,0.1475906 L 17.30814,5.569263 17.165042,5.4216724 l -5.494975,5.6674756 0.143099,0.14759 -0.457915,0.472291 -0.02858,0.678916 0.658254,-0.02947 0.457914,-0.472289 0.143098,0.14759 5.494974,-5.6674761 -0.143099,-0.1475905 0.457915,-0.4722896 c 0.268228,-0.2819097 -0.02272,-0.8606441 -0.400674,-0.7969889 -0.01904,-9.445e-4 -0.03818,-9.445e-4 -0.05725,0 z M 4.915829,6.720469 C 4.4084597,6.720469 4,7.1417514 4,7.6650483 l 0,8.5012137 c 0,0.523297 0.4084597,0.944579 0.915829,0.944579 l 10.989948,0 c 0.507369,0 0.915828,-0.421282 0.915828,-0.944579 l 0,-7.1433809 -3.577456,3.6897629 -0.658252,0.649399 -0.143098,-0.147591 -0.05725,0.05904 -0.372056,0.02947 -0.658252,0.02947 -0.973069,0.02947 0.02857,-1.003616 0.02857,-0.678916 0.02857,-0.383736 0.05724,-0.05904 -0.143098,-0.147591 0.629633,-0.678916 3.577457,-3.6897627 -9.673444,0 z M 4,17.110841 4,18.055421 C 4,18.578718 4.4084597,19 4.915829,19 l 10.989948,0 c 0.507369,0 0.915828,-0.421282 0.915828,-0.944579 l 0,-0.94458 c 0,0.523297 -0.408459,0.94458 -0.915828,0.94458 l -10.989948,0 C 4.4084597,18.055421 4,17.634138 4,17.110841 z"
     id="path3764"
     style="opacity:0.2;color:#000000" />
  <path
     id="path4077"
     d="m 17.937773,4.0048035 c -0.06786,0.033627 -0.127401,0.084823 -0.171719,0.1475905 l -0.457914,0.4722896 -0.143098,-0.1475905 -5.494975,5.6674749 0.143099,0.147591 -0.457915,0.47229 -0.02858,0.678916 0.658254,-0.02947 0.457914,-0.47229 0.143098,0.147591 5.494974,-5.6674753 -0.143099,-0.1475905 0.457915,-0.4722898 c 0.268228,-0.2819096 -0.02272,-0.8606439 -0.400674,-0.7969887 -0.01904,-9.446e-4 -0.03818,-9.446e-4 -0.05725,0 z M 4.915829,5.7758897 C 4.4084597,5.7758897 4,6.197172 4,6.720469 l 0,8.501214 c 0,0.523297 0.4084597,0.944579 0.915829,0.944579 l 10.989948,0 c 0.507369,0 0.915828,-0.421282 0.915828,-0.944579 l 0,-7.1433812 -3.577456,3.6897632 -0.658252,0.649398 -0.143098,-0.14759 -0.05725,0.05904 -0.372056,0.02947 -0.658252,0.02947 -0.973069,0.02947 0.02857,-1.003617 0.02857,-0.678916 0.02857,-0.383736 0.05724,-0.05904 -0.143098,-0.14759 0.629633,-0.678916 3.577457,-3.689763 -9.673444,0 z M 4,16.166262 4,17.110841 c 0,0.523297 0.4084597,0.94458 0.915829,0.94458 l 10.989948,0 c 0.507369,0 0.915828,-0.421283 0.915828,-0.94458 l 0,-0.944579 c 0,0.523297 -0.408459,0.944579 -0.915828,0.944579 l -10.989948,0 C 4.4084597,17.110841 4,16.689559 4,16.166262 z"
     inkscape:connector-curvature="0"
     style="color:#000000;fill:#ffffff" />
</svg>
